<svg xmlns="http://www.w3.org/2000/svg" viewBox="0 0 1923 1080"><defs><style>.cls-1{fill:#281a24;}.cls-2{fill:#722b41;}.cls-3{fill:#f9f9f9;}</style></defs><title>Cocktail</title><g id="Background"><rect class="cls-1" width="1923" height="1080"/></g><g id="Cocktail"><path class="cls-2" d="M1101.4,514.25c-2.05-6.33-3.86-12.74-5.33-19.24q-8.44-37.29-14.13-75.16c-7.33-49.12-11.12-99-9-148.63a502.73,502.73,0,0,1,10.64-86.35A9.76,9.76,0,0,0,1074,173H847.42a9.74,9.74,0,0,0-9.51,11.84c10.28,46.93,12.55,95.5,10.53,143.4-2,46.42-8.05,92.65-17,138.22-2.71,13.74-6.15,27.61-10,41.19s-8.82,26.85-12,40.57a207.13,207.13,0,0,0-5.08,46.56c0,99.45,70,180.08,156.39,180.08S1117.1,694.25,1117.1,594.8a206,206,0,0,0-5.52-47.52c-2.66-11.17-6.58-22-10.13-32.87Z" transform="translate(0.38)"/><rect class="cls-2" x="944.51" y="766.38" width="33.17" height="156.39"/><path class="cls-2" d="M955.34,878.8a10,10,0,0,1,10.75,0l78.15,49.89,54.67,34.89c8.42,5.38,4.61,18.42-5.38,18.42H827.9c-10,0-13.8-13-5.38-18.42l54.67-34.89Z" transform="translate(0.38)"/><path class="cls-1" d="M956.21,892.23a8.87,8.87,0,0,1,9,0l65.5,39,45.83,27.31c7,4.21,3.86,14.42-4.51,14.42H849.39c-8.37,0-11.56-10.21-4.5-14.42l45.82-27.31Z" transform="translate(0.38)"/><rect class="cls-1" x="955.81" y="785" width="10.57" height="119.14"/></g><g id="Outline"><path class="cls-1" d="M1086,506.39c-1.83-5.95-3.45-12-4.75-18.07q-7.51-35-12.59-70.56c-6.53-46.12-9.9-92.93-8.06-139.56a497,497,0,0,1,9.48-81.08c1.18-5.72-2.94-11.12-8.49-11.12H859.81c-5.55,0-9.66,5.4-8.47,11.11,9.15,44.07,11.18,89.67,9.38,134.64-1.74,43.59-7.17,87-15.17,129.79-2.42,12.9-5.49,25.92-8.91,38.67s-7.86,25.21-10.68,38.1a204.18,204.18,0,0,0-4.53,43.7c0,93.39,62.36,169.09,139.29,169.09S1100,675.4,1100,582a203.22,203.22,0,0,0-4.92-44.61c-2.37-10.49-5.86-20.63-9-30.86Z" transform="translate(0.38)"/></g><g id="Maske"><path class="cls-3" d="M1077.41,504.13c-1.71-5.76-3.21-11.59-4.43-17.49q-7-33.9-11.72-68.31c-6.08-44.64-9.22-89.94-7.5-135.08a498.41,498.41,0,0,1,8.82-78.48c1.1-5.54-2.73-10.77-7.9-10.77H866.74c-5.16,0-9,5.23-7.89,10.76,8.53,42.65,10.41,86.8,8.74,130.32a905.34,905.34,0,0,1-14.13,125.63c-2.25,12.49-5.11,25.1-8.3,37.44s-7.31,24.4-9.94,36.87A205.44,205.44,0,0,0,831,577.33C831,667.72,889.08,741,960.72,741s129.71-73.28,129.71-163.67a204.46,204.46,0,0,0-4.58-43.19c-2.2-10.15-5.46-20-8.4-29.87Z" transform="translate(0.38)"/></g></svg>