<?xml version="1.0" encoding="iso-8859-1"?>
<!-- Generator: Adobe Illustrator 19.0.0, SVG Export Plug-In . SVG Version: 6.00 Build 0)  -->
<svg version="1.1" id="Layer_1" xmlns="http://www.w3.org/2000/svg" xmlns:xlink="http://www.w3.org/1999/xlink" x="0px" y="0px"
	 viewBox="0 0 512 512" style="enable-background:new 0 0 512 512;" xml:space="preserve">
<g>
	<polygon style="fill:#1D1D1B;" points="311.883,15.71 360.06,15.71 360.06,0 296.172,0 296.172,135.93 311.883,135.93 	"/>
	<rect x="159.942" y="256.152" style="fill:#1D1D1B;" width="16.009" height="15.71"/>
	<rect x="183.958" y="272.155" style="fill:#1D1D1B;" width="16.01" height="15.71"/>
	<rect x="239.991" y="280.168" style="fill:#1D1D1B;" width="16.009" height="15.71"/>
	<rect x="215.975" y="296.171" style="fill:#1D1D1B;" width="16.009" height="15.71"/>
	<rect x="328.042" y="272.155" style="fill:#1D1D1B;" width="16.01" height="15.71"/>
	<rect x="272.009" y="256.152" style="fill:#1D1D1B;" width="16.01" height="15.71"/>
	<path style="fill:#1D1D1B;" d="M168.097,144.084v31.243c-18.402-3.664-32.317-19.933-32.317-39.396
		c0-22.152,18.022-40.172,40.172-40.172s40.172,18.022,40.172,40.172h15.71c0-30.814-25.07-55.883-55.883-55.883
		s-55.883,25.07-55.883,55.883c0,28.148,20.922,51.489,48.028,55.32v8.388c-31.7-3.886-56.331-30.976-56.331-63.709
		c0-35.392,28.794-64.187,64.186-64.187c35.393,0,64.187,28.794,64.187,64.187h15.71c0-44.055-35.843-79.898-79.898-79.898
		S96.056,91.874,96.056,135.93s35.842,79.898,79.897,79.898h7.855v-56.032h248.272C427.954,253.348,350.552,328.192,256,328.192
		S84.046,253.347,79.921,159.794h7.981v-15.71H64.037v7.855c0,103.216,81.889,187.652,184.107,191.789v104.385h15.71V343.728
		c102.22-4.136,184.107-88.572,184.107-191.789v-7.855H168.097z"/>
	<polygon style="fill:#1D1D1B;" points="296.172,167.948 296.172,224.131 111.915,224.131 111.915,239.841 296.172,239.841 
		296.172,304.028 311.883,304.028 311.883,239.841 400.084,239.841 400.084,224.131 311.883,224.131 311.883,167.948 	"/>
	<path style="fill:#1D1D1B;" d="M324.039,464.271h-60.184v-8.155h-15.71v8.155h-59.951c-19.699,0-35.739,15.959-35.87,35.628
		L151.615,512h209.004l-0.709-12.1C359.779,480.231,343.738,464.271,324.039,464.271z M168.402,496.29
		c1.804-9.281,9.992-16.308,19.791-16.308h135.845c9.8,0,17.989,7.028,19.792,16.308H168.402z"/>
</g>
<g>
</g>
<g>
</g>
<g>
</g>
<g>
</g>
<g>
</g>
<g>
</g>
<g>
</g>
<g>
</g>
<g>
</g>
<g>
</g>
<g>
</g>
<g>
</g>
<g>
</g>
<g>
</g>
<g>
</g>
</svg>
