<svg xmlns="http://www.w3.org/2000/svg" viewBox="0 0 68.29 42.93"><defs><style>.cls-1{fill:#efefef;}.cls-2{fill:#32542a;}.cls-3,.cls-5,.cls-6{fill:none;stroke-linecap:round;}.cls-3{stroke:#a6988d;stroke-linejoin:bevel;stroke-width:0.25px;}.cls-4{fill:#a7988d;}.cls-5{stroke:#fff;}.cls-5,.cls-6,.cls-7{stroke-linejoin:round;}.cls-5,.cls-7{stroke-width:0.5px;}.cls-6{stroke:#3b5b32;stroke-width:0.15px;}.cls-7{fill:#fff;stroke:#000;}</style></defs><title>404</title><g id="Ebene_7" data-name="Ebene 7"><path class="cls-1" d="M584.49,358.61c0,.11-.08.17-.12.29a3.4,3.4,0,0,1-1.39,2,14,14,0,0,1-10.43,1.34c-2.61-.61-5.1-1.8-7.77-2a30.31,30.31,0,0,0-7,.7c-2.31.35-14.65.5-17,.46a8.73,8.73,0,0,1-2.88-.4,4.57,4.57,0,0,1-2.69-2.62,3.89,3.89,0,0,1,.51-3.67c.93-1.22,2.52-1.71,3.79-2.59a3.2,3.2,0,0,0,.93-.94,11.12,11.12,0,0,0,.58-2.09,3.2,3.2,0,0,1,2.51-2.07c1.27-.2,11.68,1,12.81,1.42a12,12,0,0,0,2.48.42c5.7.75,10.77,4.47,16.51,4.81a30.71,30.71,0,0,1,4.19.25,12,12,0,0,1,2.67,1c.85.4,2.16.71,2.32,1.63,0,.19,0,.38.09.57a3.64,3.64,0,0,1,0,.57.2.2,0,0,1,0,.11,2.39,2.39,0,0,0-.06.53,1.43,1.43,0,0,0,0,.22l0,.08S584.49,358.59,584.49,358.61Z" transform="translate(-516.34 -322.09)"/><path class="cls-2" d="M556,347" transform="translate(-516.34 -322.09)"/><line class="cls-3" x1="41.42" y1="35.17" x2="59.64" y2="42.68"/><ellipse class="cls-2" cx="566.86" cy="360.94" rx="1.32" ry="2.08" transform="translate(-509.67 410.06) rotate(-66.02)"/><path class="cls-4" d="M575.73,364.48a1.5,1.5,0,0,0,.2,0,.75.75,0,0,1,.24.15l.05.06a.14.14,0,0,1,0,.06.22.22,0,0,1-.12.19.51.51,0,0,1-.21.06.47.47,0,0,1-.17,0c-.11-.05-.17-.15-.27-.22a1.43,1.43,0,0,0-.21-.12s0,0,0,0,0-.27.11-.26S575.59,364.48,575.73,364.48Z" transform="translate(-516.34 -322.09)"/><ellipse class="cls-2" cx="561.86" cy="358.94" rx="1.32" ry="2.08" transform="translate(-510.81 404.3) rotate(-66.02)"/><path class="cls-5" d="M582.5,359.5a4.33,4.33,0,0,1-4,2" transform="translate(-516.34 -322.09)"/><path class="cls-6" d="M562,360c2,0,1-1,1-1" transform="translate(-516.34 -322.09)"/><path class="cls-6" d="M567,362c2,0,1-1,1-1" transform="translate(-516.34 -322.09)"/></g><g id="Ebene_6" data-name="Ebene 6"><polygon class="cls-7" points="0.25 26.57 0.25 9.83 3.47 17.71 23.75 16.59 38.32 0.25 38.32 35.5 23.75 19.97 3.47 18.68 0.25 26.57"/></g></svg>