<svg id="bottle" xmlns="http://www.w3.org/2000/svg" viewBox="0 0 684.7 1835.96"><defs><style>.cls-1,.cls-2{fill:none;stroke:#000;stroke-miterlimit:10;}.cls-2{stroke-width:2px;}</style></defs><title>bottle</title><path class="cls-1" d="M1212.45,2133.55" transform="translate(-870.1 -299.18)"/><path class="cls-2" d="M1212.76,300.18c121.75,0,130.37,32.79,130.37,32.79s-3.39,293.79,0,321,.85,56.87,18.68,70.45c0,0,25.68,20.92,75.54,49.43,55.57,31.78,107,103.63,112.06,186.57,3.11,50.44,0,183.36,0,183.36l4.37,820.6s2.2,74.79-41.79,121c-12.21,12.81-45.58,21.87-86.23,30.79-60.62,13.31-141.44,19.49-212.84,17.74-71.4,1.75-153.16-4.43-213.78-17.74-40.65-8.92-74-18-86.23-30.79-44-46.19-41.79-121-41.79-121l4.37-820.6s-3.11-132.92,0-183.36c5.1-82.94,56.49-154.79,112.06-186.57,49.86-28.51,75.54-49.43,75.54-49.43,17.83-13.58,15.28-43.29,18.68-70.45s0-321,0-321S1091,300.18,1212.76,300.18Z" transform="translate(-870.1 -299.18)"/></svg>