<svg xmlns="http://www.w3.org/2000/svg" viewBox="0 0 35.75 38.57"><defs><style>.cls-1,.cls-4{fill:none;stroke:#000;}.cls-1{stroke-linejoin:round;stroke-width:0.5px;}.cls-2,.cls-3{font-size:13.03px;font-family:PlayfairDisplay-Bold, Playfair Display;font-weight:700;}.cls-2{letter-spacing:-0.01em;}.cls-4{stroke-miterlimit:10;stroke-width:0.25px;}</style></defs><title>favicon</title><g id="glas"><polygon class="cls-1" points="26.57 38.32 9.83 38.32 17.71 35.1 16.59 14.82 0.25 0.25 35.5 0.25 19.97 14.82 18.68 35.1 26.57 38.32"/></g><g id="buchstaben"><text class="cls-2" transform="translate(2.88 21)">R</text><text class="cls-3" transform="translate(23.69 33.67)">C</text><text class="cls-3" transform="translate(23.69 21)">C</text><path d="M112.79,337.24a4.41,4.41,0,0,1,1.09,3.44,5.48,5.48,0,0,1-.36,2.35,3.55,3.55,0,0,1-1.76,1.74,6.1,6.1,0,0,1-2.78.59l-.81,0-1.09,0c-.9,0-1.56,0-2,0v-.26a2.32,2.32,0,0,0,.63-.11.44.44,0,0,0,.28-.3,2.48,2.48,0,0,0,.07-.72v-6.46a2.53,2.53,0,0,0-.07-.72.49.49,0,0,0-.28-.3,2.41,2.41,0,0,0-.63-.1v-.26c.37,0,.89,0,1.58,0h.92l1.53,0A5.16,5.16,0,0,1,112.79,337.24Zm-4.31-.78a.53.53,0,0,0-.28.32,2.47,2.47,0,0,0-.08.71V344a2.39,2.39,0,0,0,.08.7.52.52,0,0,0,.28.33,1.62,1.62,0,0,0,.62.09,2.41,2.41,0,0,0,2.24-1.1,6.59,6.59,0,0,0,.67-3.33,6.11,6.11,0,0,0-.69-3.28,2.46,2.46,0,0,0-2.23-1.05A1.4,1.4,0,0,0,108.48,336.46Z" transform="translate(-101.75 -311.68)"/></g><g id="linien"><line class="cls-4" x1="19.91" y1="29.81" x2="23.53" y2="29.81"/><polyline class="cls-4" points="16.38 25.47 13.13 29.81 16.65 29.81"/><polyline class="cls-4" points="20.64 16.96 23.17 16.96 20.46 20.38"/><line class="cls-4" x1="12.76" y1="16.96" x2="15.94" y2="16.96"/></g></svg>