<svg xmlns="http://www.w3.org/2000/svg" viewBox="0 -50 202.66 227.2"><defs><style>.cls-1{fill:#efefef;}.cls-2{fill:#32542a;}.cls-3,.cls-5,.cls-6{fill:none;stroke-linecap:round;}.cls-3{stroke:#a6988d;stroke-linejoin:bevel;stroke-width:0.25px;}.cls-4{fill:#a7988d;}.cls-5{stroke:#fff;}.cls-5,.cls-6,.cls-7{stroke-linejoin:round;}.cls-5,.cls-7{stroke-width:0.5px;}.cls-6{stroke:#3b5b32;stroke-width:0.15px;}.cls-7{fill:#fff;stroke:#000;}</style></defs><title>404</title><g id="Ebene_7" data-name="Ebene 7"><path class="cls-1" d="M295.57,346c-.12.35-.23.52-.35.87-.77,2.46-1.94,4.67-4.15,6-9.13,5.56-20.61,6.41-31,4-7.77-1.81-15.17-5.35-23.11-6-7-.6-13.95,1-20.89,2.08s-43.58,1.5-50.53,1.38A26,26,0,0,1,157,353a13.54,13.54,0,0,1-8-7.77,11.64,11.64,0,0,1,1.5-10.92c2.79-3.64,7.52-5.08,11.28-7.71a9.2,9.2,0,0,0,2.78-2.81c1.07-1.88,1-4.17,1.72-6.22a9.5,9.5,0,0,1,7.48-6.13c3.77-.6,34.73,3,38.09,4.2a36.43,36.43,0,0,0,7.37,1.27c17,2.21,32,13.28,49.13,14.31,4.16.25,8.38-.1,12.47.73a35.36,35.36,0,0,1,7.94,2.85c2.53,1.19,6.41,2.1,6.89,4.85.1.57.15,1.14.26,1.71a11.64,11.64,0,0,1,.14,1.67,1.19,1.19,0,0,1,0,.33,7.19,7.19,0,0,0-.15,1.59,4.69,4.69,0,0,0-.14.65l-.11.24S295.56,345.91,295.57,346Z" transform="translate(-93.34 -237.82)"/><path class="cls-2" d="M210.82,311.42" transform="translate(-93.34 -237.82)"/><line class="cls-3" x1="122.73" y1="104.14" x2="176.93" y2="126.45"/><ellipse class="cls-2" cx="243.12" cy="352.88" rx="3.93" ry="6.18" transform="translate(-271.46 193.76) rotate(-66.02)"/><path class="cls-4" d="M269.52,363.44c.2,0,.4,0,.59.05a1.85,1.85,0,0,1,.7.44.61.61,0,0,1,.17.19.37.37,0,0,1,0,.18.65.65,0,0,1-.34.55,1.39,1.39,0,0,1-1.13.09,5,5,0,0,1-.81-.65c-.2-.14-.42-.23-.63-.36a.33.33,0,0,1-.13-.13c-.14-.3,0-.78.35-.77S269.1,363.44,269.52,363.44Z" transform="translate(-93.34 -237.82)"/><ellipse class="cls-2" cx="228.24" cy="346.93" rx="3.93" ry="6.18" transform="translate(-274.85 176.64) rotate(-66.02)"/><path class="cls-5" d="M289.65,348.61s-3,5.95-11.9,5.95" transform="translate(-93.34 -237.82)"/><path class="cls-6" d="M228.67,350.1c6,0,3-3,3-3" transform="translate(-93.34 -237.82)"/><path class="cls-6" d="M243.54,356.05c6,0,3-3,3-3" transform="translate(-93.34 -237.82)"/></g><g id="Ebene_6" data-name="Ebene 6"><polygon class="cls-7" points="0.25 78.54 0.25 28.74 9.83 52.2 70.16 48.85 113.49 0.25 113.49 105.11 70.16 58.91 9.83 55.08 0.25 78.54"/></g></svg>
